<svg xmlns="http://www.w3.org/2000/svg" width="106" height="40.527" viewBox="0 0 106 40.527"><path d="M-1734.99,98.761h-47.1c-3.872,0-5.887-2-5.889-5.855q-.007-14.37,0-28.741c0-3.966,1.967-5.929,5.939-5.929q47.084,0,94.167,0c3.957,0,5.89,1.967,5.89,5.961q0,14.436,0,28.873c0,3.619-2.033,5.684-5.636,5.686Q-1711.3,98.768-1734.99,98.761ZM-1765.31,61.2v1.715c0,6.27.007,12.54-.013,18.81-.01,3.36-1.793,5.117-5.179,5.129-4.327.015-8.654,0-12.98,0h-1.531c0,2.214-.018,4.236,0,6.258.022,1.89.785,2.653,2.673,2.662q8.328.042,16.657.049,18.649-.011,37.3-.047,20.3-.011,40.6,0c2.163,0,2.839-.695,2.84-2.877q.007-14.305,0-28.612c0-2.445-.639-3.092-3.03-3.092q-37.886,0-75.772,0Zm-19.7,22.531a10.147,10.147,0,0,0,1.045.119c4.5.01,9.007.029,13.51.007,1.727-.009,2.133-.476,2.135-2.269q.009-9.538,0-19.074c0-.418-.056-.835-.09-1.309-4.877,0-9.6-.024-14.317.015-1.5.012-2.257.9-2.28,2.51-.027,1.9,0,3.8,0,5.7Z" transform="translate(1787.978 -58.236)"/><path d="M-1736.25,82.907q-23.176,0-46.351,0c-1.9,0-2.625-.4-2.668-1.441-.046-1.113.727-1.558,2.68-1.558h92.7c.265,0,.53,0,.8,0,1-.013,1.8.321,1.836,1.44.04,1.213-.805,1.561-1.852,1.561q-8.343,0-16.688,0Z" transform="translate(1789.256 -48.003)"/><path d="M-1734.371,72.185a26.124,26.124,0,0,1,.929-3.619,4.02,4.02,0,0,1,3.921-2.621,4.1,4.1,0,0,1,4.041,2.454,8.607,8.607,0,0,1-.007,7.533,4.08,4.08,0,0,1-3.9,2.481,3.944,3.944,0,0,1-3.848-2.328A26.758,26.758,0,0,1-1734.371,72.185Zm2.372-.206a11.438,11.438,0,0,0,.752,2.858,2.583,2.583,0,0,0,1.809,1.223A2.456,2.456,0,0,0-1727.6,74.9a5.9,5.9,0,0,0-.127-5.706,1.855,1.855,0,0,0-3.336-.038A13.815,13.815,0,0,0-1732,71.979Z" transform="translate(1813.292 -54.596)"/><path d="M-1731.653,72.008a23.044,23.044,0,0,1-1.151,4.01,4.256,4.256,0,0,1-7.6.246,8.068,8.068,0,0,1,.074-8.322,4.252,4.252,0,0,1,7.273.009A21.012,21.012,0,0,1-1731.653,72.008Zm-2.425.261a16.475,16.475,0,0,0-.816-2.888,1.883,1.883,0,0,0-3.47-.146,5.86,5.86,0,0,0-.06,5.821,1.937,1.937,0,0,0,3.576-.077A14.074,14.074,0,0,0-1734.078,72.268Z" transform="translate(1809.917 -54.619)"/><path d="M-1764.765,74.651c-1.774-.559-2.719.272-3.221,1.9a2.215,2.215,0,0,1-.752,1.2,1.63,1.63,0,0,1-1.407.141,1.394,1.394,0,0,1-.461-1.288q2.281-4.993,4.742-9.9a1.193,1.193,0,0,1,2.221.038q2.44,4.843,4.692,9.777a1.488,1.488,0,0,1-.431,1.379,2.346,2.346,0,0,1-1.615-.3c-.287-.147-.433-.649-.558-1.02C-1762.084,75.028-1762.941,74.034-1764.765,74.651Zm1.129-2.389-1.169-2.409-1.029,2.409Z" transform="translate(1796.163 -54.587)"/><path d="M-1741.145,77.557a5.083,5.083,0,0,1-1.25.461,2.851,2.851,0,0,1-1.353-.228c-.233-.1-.346-.49-.5-.758-.449-.8-.729-2.074-1.371-2.294a10.74,10.74,0,0,0-3.8-.14c-.287.012-.642.392-.817.69a12.5,12.5,0,0,1-1.091,2.1,2.009,2.009,0,0,1-1.652.556c-.8-.194-.774-.957-.448-1.636,1.513-3.14,3-6.292,4.562-9.41.593-1.185,1.783-1.256,2.348-.132,1.628,3.233,3.167,6.51,4.735,9.771a3.177,3.177,0,0,1,.144.5Zm-6.519-7.666-1.093,2.336h2.21Z" transform="translate(1804.195 -54.587)"/><path d="M-1756.593,74.551c-1.437-.458-2.347.352-2.824,1.936a2.183,2.183,0,0,1-.72,1.216,1.883,1.883,0,0,1-1.518.155,1.374,1.374,0,0,1-.4-1.29q2.288-4.978,4.745-9.874a1.185,1.185,0,0,1,2.205.044q2.456,4.9,4.73,9.879a1.36,1.36,0,0,1-.432,1.268,2.029,2.029,0,0,1-1.531-.158c-.327-.171-.47-.715-.669-1.106C-1754.292,74.079-1753.524,74.635-1756.593,74.551Zm1.482-2.3-1.166-2.363-1.057,2.363Z" transform="translate(1800.198 -54.587)"/><path d="M-1722.983,75.884c.9,0,1.809-.01,2.713,0,.74.012,1.322.274,1.337,1.126s-.555,1.138-1.3,1.142c-1.852.012-3.706.05-5.553-.032a1.6,1.6,0,0,1-1.24-.739,1.845,1.845,0,0,1,.375-1.5c1.066-1.231,2.27-2.339,3.373-3.541a9.083,9.083,0,0,0,1.4-1.9,1.357,1.357,0,0,0-.629-2.012,1.567,1.567,0,0,0-2.2.52,2.948,2.948,0,0,0-.234.474c-.38.836-1.111,1.178-1.806.682a1.878,1.878,0,0,1-.431-1.671c.564-1.893,3.176-2.958,5.3-2.285a3.592,3.592,0,0,1,2.545,4.548,8.746,8.746,0,0,1-1.581,2.69,22.317,22.317,0,0,1-2.239,2.151Z" transform="translate(1816.665 -54.596)"/><path d="M-1778.06,61.85c1.584,0,3.171.037,4.755-.013,1.023-.031,1.25.448,1.245,1.371s-.124,1.533-1.249,1.522c-3.215-.029-6.429-.021-9.644,0-1.132.006-1.079-.733-1.1-1.525s.069-1.384,1.1-1.357c1.628.044,3.26.012,4.889.012Z" transform="translate(1789.834 -56.537)"/><path d="M-1782.445,71.528v2.3a17.915,17.915,0,0,1,2.615.038c.395.06.727.539,1.086.827-.353.25-.689.68-1.061.715-1.05.1-2.116.026-3.176.041-.751.01-1.173-.3-1.173-1.088,0-2.163-.047-4.328.052-6.487a1.5,1.5,0,0,1,1.011-1.035,15.932,15.932,0,0,1,3.433,0c.344.034.644.54.963.832-.314.25-.607.68-.944.718a25.721,25.721,0,0,1-2.813.035V69.9c.636,0,1.237-.031,1.834.009.651.043,1.627-.281,1.661.773.035,1.07-.929.81-1.594.836C-1781.122,71.546-1781.695,71.528-1782.445,71.528Z" transform="translate(1789.779 -54.218)"/><path d="M-1773.871,70.261a21.358,21.358,0,0,1-.019,2.64,2.866,2.866,0,0,1-2.9,2.715,2.892,2.892,0,0,1-3.1-2.488,40.875,40.875,0,0,1-.1-5.538c.006-.271.552-.529.847-.794.235.319.658.63.676.961.075,1.45-.041,2.914.072,4.361a2.517,2.517,0,0,0,.808,1.662c.886.66,2.023-.034,2.1-1.268.1-1.45.035-2.909.059-4.364.01-.608-.065-1.422.851-1.257.321.057.649.791.735,1.259a12,12,0,0,1,.031,2.111Z" transform="translate(1791.729 -54.195)"/></svg>