<svg xmlns="http://www.w3.org/2000/svg" width="72" height="76.719" viewBox="0 0 72 76.719"><path d="M-1316.14,30.861c.754.151,1.517.269,2.259.459a15.639,15.639,0,0,1,9.437,6.4,1.577,1.577,0,0,1-.383,2.479,1.8,1.8,0,0,1-2.538-.816c-4.418-6.856-14.4-6.717-19.136-1.8a11.055,11.055,0,0,0-3.1,8.041q.009,12.959,0,25.917c0,7.19-.048,14.381.021,21.572a10.477,10.477,0,0,0,7.065,10.324c6.915,2.767,15.327-.571,16.729-8.222a13.43,13.43,0,0,0,.2-2.384q.018-13.932.006-27.864a6.6,6.6,0,0,1,.016-.674,1.668,1.668,0,0,1,1.711-1.476,1.7,1.7,0,0,1,1.681,1.442,4.128,4.128,0,0,1,.011.523q0,14.045,0,28.089c0,7.071-5.271,13.055-12.717,14.456a15.843,15.843,0,0,1-15.5-6.276,13.512,13.512,0,0,1-2.641-8.106q.014-23.67,0-47.339c0-7.35,5.677-13.529,13.467-14.615a1.7,1.7,0,0,0,.359-.132Z" transform="translate(1333.019 -30.861)"/><path d="M-1261.019,54.163a10.09,10.09,0,0,1-1.818,4.059,8.734,8.734,0,0,1-7.074,3.5q-22.009-.014-44.021-.009a8.927,8.927,0,0,1-8.479-6.411c-1.513-5.28,2.824-10.719,8.6-10.735,8.274-.022,16.548-.007,24.822-.007q9.157,0,18.315,0,7.654-.012,9.564,7.389c.012.048.059.086.091.129Zm-30.844-6.148q-3.253,0-6.506,0c-5.436.006-10.872-.033-16.306.043-2.633.037-4.4,1.955-4.619,4.733a4.844,4.844,0,0,0,3.767,5.328,10.888,10.888,0,0,0,2.235.172q10.08.018,20.162.006,11.648,0,23.3,0c2.234,0,4.059-.772,4.961-2.972,1.256-3.06-.167-7.336-4.818-7.316C-1277.082,48.039-1284.473,48.016-1291.863,48.015Z" transform="translate(1333.019 -32.03)"/><path d="M-1319.315,95.178c0-.214-.016-.43,0-.642a3.086,3.086,0,0,0-1.434-3.313,4.244,4.244,0,0,1-1.762-5.09,5.2,5.2,0,0,1,4.445-3.8,4.874,4.874,0,0,1,4.743,2.438,4.167,4.167,0,0,1,.219,4.9,9.092,9.092,0,0,1-2.16,2.195,1.24,1.24,0,0,0-.606,1.151c.027,1.472.018,2.944,0,4.416a1.78,1.78,0,0,1-1.728,2c-1.023,0-1.7-.786-1.723-2C-1319.325,96.677-1319.316,95.927-1319.315,95.178Zm1.719-6.084c1.186.006,1.7-.471,1.729-1.6a1.524,1.524,0,0,0-1.673-1.784,1.518,1.518,0,0,0-1.767,1.688C-1319.328,88.571-1318.808,89.087-1317.6,89.094Z" transform="translate(1333.019 -35.249)"/></svg>