<svg xmlns="http://www.w3.org/2000/svg" width="78.359" height="60.563" viewBox="0 0 78.359 60.563"><g transform="translate(0)"><path d="M-1937.867,44.176a23.7,23.7,0,0,1,1.57,3.008c2.622,7.341,5.183,14.7,7.765,22.058.873,2.487.731,2.795-1.715,3.657q-7.668,2.7-15.338,5.394c-.518.183-1.033.374-1.707.618,1.629,3.374,3.191,6.644,4.808,9.887a1.264,1.264,0,0,0,.971.478c6.948.027,13.895.021,21.106.021V87.021q0-4.034,0-8.069c0-1.3.58-1.972,1.939-1.95,1.979.03,3.962.079,5.937-.02a2.305,2.305,0,0,1,2.689,1.618v.3a11.215,11.215,0,0,0-.23,1.6q-.023,10.882-.012,21.767c0,2.1-.368,2.456-2.489,2.463-1.877.008-3.755.017-5.631,0-1.7-.019-2.184-.49-2.2-2.172-.023-2.789-.007-5.581-.008-8.371V92.345h-1.772c-6.748,0-13.5-.028-20.244.025a2.448,2.448,0,0,1-2.57-1.627c-1.654-3.579-3.414-7.111-5.195-10.786-1.215.4-2.358.766-3.49,1.162q-8.1,2.839-16.2,5.691c-1.813.634-2.34.385-2.969-1.4-1.814-5.159-3.587-10.334-5.458-15.473A4.394,4.394,0,0,0-1979.816,68c-1.895-1.356-3.933-2.511-5.82-3.877a3.227,3.227,0,0,1-1.415-2.025c-.009-.493,1.069-1.222,1.792-1.479q22.408-7.95,44.847-15.812a13.557,13.557,0,0,0,1.327-.63Zm-44.369,18.567c4.468,2.888,8.606,5.524,12.693,8.24a2.229,2.229,0,0,0,2.227.241q15.494-5.464,31-10.9c.406-.143.793-.338,1.246-.533l-4.267-12.116Zm48.25.19c-.637.185-1.125.3-1.6.469-10.495,3.673-21,7.32-31.466,11.066a3.441,3.441,0,0,1-3.636-.476c-1.093-.83-2.3-1.512-3.792-2.477l4.292,12.17,38.712-13.58Zm20.764,38.752V80.152h-4.066c-.026.584-.066,1.081-.066,1.577,0,6.079.045,12.16-.038,18.238-.02,1.453.453,1.893,1.811,1.734A21.1,21.1,0,0,1-1913.222,101.685Z" transform="translate(1988.199 -44.176)"/><path d="M-1974.168,83.308c-.408.374-.813.994-1.377,1.22-1.972.789-4,1.446-6,2.146a1.715,1.715,0,0,1-2.475-1.235c-1.29-3.732-2.609-7.454-3.909-11.181a1.7,1.7,0,0,1,1.209-2.477c1.969-.656,3.918-1.371,5.876-2.059a1.765,1.765,0,0,1,2.516,1.219c1.282,3.679,2.534,7.368,3.793,11.055C-1974.426,82.327-1974.346,82.67-1974.168,83.308Zm-10.509-9,3.2,9.093,3.749-1.342-3.2-9.066Z" transform="translate(1988.106 -41.934)"/></g></svg>