<svg xmlns="http://www.w3.org/2000/svg" width="72" height="65.764" viewBox="0 0 72 65.764"><path d="M-2158.5,80.15a2.274,2.274,0,0,1,2.4-1.317c2.113.053,4.228.015,6.392.015A7.459,7.459,0,0,1-2148.4,74.9a1.361,1.361,0,0,0,.017-.938,39.434,39.434,0,0,1-.922-15.9c1.466-8.353,6.311-14.238,14.083-17.622a32.97,32.97,0,0,1,15.619-2.3,30.3,30.3,0,0,1,11.833,2.979c6.308,3.185,9.954,8.417,11.586,15.178a40.321,40.321,0,0,1,.584,13.328c-.157,1.685-.493,3.353-.713,5.033a2.3,2.3,0,0,0,.143.965c.325,1.011.683,2.012,1.1,3.219h.823c1.782,0,3.566.041,5.346-.015a2.27,2.27,0,0,1,2.4,1.317v.68a2.085,2.085,0,0,1-2.3,1.429q-33.678-.029-67.357,0A2.318,2.318,0,0,1-2158.5,81Zm13.171-7.662.432.074a2.812,2.812,0,0,0,.307-.848c.032-1.725-.03-3.454.037-5.177a5.884,5.884,0,0,1,3.653-5.548c.825-.367,1.671-.69,2.519-1a7.641,7.641,0,0,0,4.869-5.172c.351-1.129.569-2.3.841-3.452a1.724,1.724,0,0,1,1.659-1.434,1.715,1.715,0,0,1,1.692,1.392c.082.329.13.666.2,1,.873,4.036,3,7.037,7.026,8.439a28.258,28.258,0,0,0,8.017,1.23c2.653.129,5.322.186,7.948.539,3.935.53,5.7,2.732,5.7,6.7,0,1.018,0,2.035,0,3.092l.985.341a5.383,5.383,0,0,0,.135-.541,42.443,42.443,0,0,0,.05-13.855c-1.623-8.386-6.444-13.864-14.845-15.9a33.165,33.165,0,0,0-16.223-.02c-8.571,2.205-14.008,7.654-15.628,16.418-.509,2.756-.161,5.689-.049,8.535C-2145.931,69.037-2145.563,70.759-2145.329,72.488Zm-.907,6.307h10.117c.219-3.272,1.617-5,4.089-5.092a4.156,4.156,0,0,1,2.9.983,4.5,4.5,0,0,1,1.516,4.1h10.206c.028-3.118,1.57-5,4.1-5.08,2.642-.077,4.188,1.685,4.426,5.082h10.117a3.32,3.32,0,0,0-3.181-3.383,1.747,1.747,0,0,1-1.874-2.01c-.008-1.556.006-3.112,0-4.668s-.47-2.273-1.976-2.631a26.41,26.41,0,0,0-3.851-.537c-3.63-.307-7.289-.394-10.891-.9a11.948,11.948,0,0,1-8.4-4.779c-.643-.891-1.215-1.834-1.83-2.769-.078.137-.173.277-.241.428a10.506,10.506,0,0,1-5.924,5.524c-.785.319-1.56.666-2.356.953a2.626,2.626,0,0,0-1.906,2.842c.06,2.121.017,4.244.014,6.366,0,1.512-.481,2.04-1.965,2.18A3.321,3.321,0,0,0-2146.236,78.795Z" transform="translate(2158.5 -36.339)"/><path d="M-2147.462,36.339c.366.371.867.68,1.073,1.125a1.655,1.655,0,0,1-1.694,2.265c-1.922.021-3.843.006-5.765.006h-.916v5.643c0,.283,0,.566,0,.848-.011,1.252-.637,2-1.682,2.008s-1.709-.733-1.711-1.976q-.009-4.959,0-9.919Z" transform="translate(2158.5 -36.339)"/><path d="M-2086.84,36.339q0,4.917,0,9.835c0,1.319-.633,2.07-1.714,2.06s-1.678-.761-1.68-2.094c0-2.09,0-4.18,0-6.4H-2092q-2.289,0-4.579,0c-1.188,0-1.84-.377-2.095-1.2-.263-.85.089-1.529,1.137-2.195Z" transform="translate(2158.5 -36.339)"/><path d="M-2122.865,105.967c-5.462-.067-10.122-2.582-13.937-6.849a40.269,40.269,0,0,1-6.747-11.109,1.664,1.664,0,0,1,.832-2.277,1.668,1.668,0,0,1,2.287.978,41.941,41.941,0,0,0,4.995,8.733c2.37,3.059,5.173,5.581,9.007,6.584,5.627,1.472,10.5-.023,14.625-4.054a33.32,33.32,0,0,0,6.638-9.965c.252-.537.463-1.1.756-1.609a1.641,1.641,0,0,1,2.133-.677,1.592,1.592,0,0,1,.911,2.039c-2.53,5.882-5.64,11.359-11.082,15.1A17.886,17.886,0,0,1-2122.865,105.967Z" transform="translate(2158.5 -41.897)"/><path d="M-2158.157,107.651c0-3.475-.014-6.837.009-10.2a1.638,1.638,0,0,1,1.655-1.686,1.653,1.653,0,0,1,1.718,1.711c.029,1.923.01,3.846.011,5.769v1.018h5.206c.565,0,1.133-.026,1.7.012a1.657,1.657,0,0,1,1.6,1.658,1.611,1.611,0,0,1-1.542,1.7C-2151.224,107.673-2154.64,107.651-2158.157,107.651Z" transform="translate(2158.5 -41.897)"/><path d="M-2090.235,104.167c0-2.2-.009-4.378,0-6.553a1.7,1.7,0,0,1,1.416-1.833,1.636,1.636,0,0,1,1.949,1.535c.043,3.415.017,6.831.017,10.3-.272.017-.489.042-.707.042q-4.581,0-9.162,0c-1.26,0-2-.628-2.017-1.673-.014-1.086.734-1.716,2.053-1.721q3.1-.009,6.193-.013A1.365,1.365,0,0,0-2090.235,104.167Z" transform="translate(2158.5 -41.897)"/></svg>