<svg xmlns="http://www.w3.org/2000/svg" width="80" height="80" viewBox="0 0 80 80"><g transform="translate(-574 -889)"><g transform="translate(574 889)" fill="none" stroke="#fabe7d" stroke-width="2"><circle cx="40" cy="40" r="40" stroke="none"/><circle cx="40" cy="40" r="39" fill="none"/></g><g transform="translate(845.124 917.077)"><g transform="translate(-244.124 -1)"><path d="M-231.526-1h5.607a6.918,6.918,0,0,1,6.848,5.619,6.343,6.343,0,0,1,.121,1.22q.013,5.752,0,11.5a6.918,6.918,0,0,1-5.738,6.726,8.067,8.067,0,0,1-1.259.1q-5.616.012-11.232,0A6.922,6.922,0,0,1-244,18.551a6.626,6.626,0,0,1-.118-1.239q-.013-5.724,0-11.449a6.918,6.918,0,0,1,5.747-6.756,7.86,7.86,0,0,1,1.223-.1C-235.277-1-233.4-1-231.526-1Zm10.7,12.584q0-2.777,0-5.553a5.946,5.946,0,0,0-.039-.722A5.043,5.043,0,0,0-225.89.885q-5.643-.007-11.287,0a5.023,5.023,0,0,0-1.11.124A5.02,5.02,0,0,0-242.239,6q0,5.6,0,11.2a5.7,5.7,0,0,0,.038.667,5.038,5.038,0,0,0,4.978,4.433c3.792.01,7.585,0,11.377,0a4.835,4.835,0,0,0,1.783-.337,5.041,5.041,0,0,0,3.233-4.729C-220.824,15.348-220.827,13.467-220.827,11.586Z" transform="translate(244.124 1)" fill="#fabe7d"/><path d="M-219.434,16.974a6.73,6.73,0,0,1-6.724,6.716,6.728,6.728,0,0,1-6.708-6.714,6.73,6.73,0,0,1,6.724-6.716A6.729,6.729,0,0,1-219.434,16.974Zm-1.891.006a4.821,4.821,0,0,0-4.828-4.829,4.821,4.821,0,0,0-4.82,4.819,4.822,4.822,0,0,0,4.828,4.829A4.821,4.821,0,0,0-221.325,16.98Z" transform="translate(238.74 -4.384)" fill="#fabe7d"/><path d="M-207.824,9.865a1.3,1.3,0,0,1-1.3-1.31,1.3,1.3,0,0,1,1.31-1.3,1.3,1.3,0,0,1,1.3,1.311A1.3,1.3,0,0,1-207.824,9.865Z" transform="translate(227.387 -2.946)" fill="#fabe7d"/></g></g></g></svg>