<svg xmlns="http://www.w3.org/2000/svg" width="80" height="80" viewBox="0 0 80 80"><g transform="translate(-474 -889)"><g transform="translate(474 889)" fill="none" stroke="#fabe7d" stroke-width="2"><circle cx="40" cy="40" r="40" stroke="none"/><circle cx="40" cy="40" r="39" fill="none"/></g><g transform="translate(501.993 917.237)"><g transform="translate(0 0)"><path d="M4.989,22.578V7.087H.2V22.578Zm0-20.982A2.355,2.355,0,0,0,2.535-.846,2.362,2.362,0,0,0,.053,1.6,2.348,2.348,0,0,0,2.478,4.038h.029A2.363,2.363,0,0,0,4.989,1.6ZM12.8,22.578V13.752a3.591,3.591,0,0,1,.173-1.281,2.875,2.875,0,0,1,2.7-1.922,2.856,2.856,0,0,1,3.093,3.2v8.826h4.82V13.515c0-4.855-2.591-7.113-6.048-7.113a5.232,5.232,0,0,0-4.769,2.663L12.8,6.993H7.987c.069,1.483,0,15.585,0,15.585Z" transform="translate(-0.053 0.846)" fill="#fabe7d" fill-rule="evenodd"/></g></g></g></svg>