<svg xmlns="http://www.w3.org/2000/svg" width="72" height="80" viewBox="0 0 72 80"><path d="M-1597.386,96.523h-19.147c-.16-1.872-.215-3.709-.5-5.51a36.7,36.7,0,0,0-1.273-5.441,11.092,11.092,0,0,0-1.69-3.148,49.558,49.558,0,0,1-6.2-9.757c-4.075-9.429.154-19.919,8.073-24.834a20.675,20.675,0,0,1,29.26,7.213,18.948,18.948,0,0,1,.272,19.492,39.087,39.087,0,0,1-4.3,6.48,17.121,17.121,0,0,0-3.738,8.685C-1596.961,91.922-1597.131,94.165-1597.386,96.523Zm-3.419-3.6c.193-1.32.344-2.51.546-3.692.661-3.86,1.84-7.481,4.541-10.484a31.369,31.369,0,0,0,2.65-3.71,17.484,17.484,0,0,0,3.21-12.318A17.2,17.2,0,0,0-1611.687,48.4,17.053,17.053,0,0,0-1623,70.8c1.274,3.292,3.407,6.056,5.5,8.848a18.622,18.622,0,0,1,1.992,3.1,29.21,29.21,0,0,1,2.306,9.264c.048.412-.078.923.639.92C-1608.668,92.92-1604.771,92.927-1600.805,92.927Z" transform="translate(1642.836 -31.756)"/><path d="M-1616.625,102.6V99.082h19.354V102.6Z" transform="translate(1642.836 -34.779)"/><path d="M-1616.625,108.69v-3.52h19.357v3.52Z" transform="translate(1642.836 -34.779)"/><path d="M-1608.707,29.221h3.552v9.831h-3.552Z" transform="translate(1642.836 -29.221)"/><path d="M-1570.836,63.379v3.484h-9.874V63.379Z" transform="translate(1642.836 -31.534)"/><path d="M-1585.145,79.759c.642-1.109,1.224-2.112,1.83-3.16l8.609,4.969-1.824,3.163Z" transform="translate(1642.836 -32.622)"/><path d="M-1592.313,43.488l-3.157-1.827,4.963-8.616,3.164,1.822Z" transform="translate(1642.836 -29.221)"/><path d="M-1626.52,34.952l3.157-1.833,4.976,8.607-3.158,1.831Z" transform="translate(1642.836 -29.221)"/><path d="M-1637.182,45.671l8.615,4.973-1.822,3.164L-1639,48.84Z" transform="translate(1642.836 -30.402)"/><path d="M-1576.6,45.548l1.823,3.16-8.6,4.971-1.832-3.155Z" transform="translate(1642.836 -30.393)"/><path d="M-1638.94,81.709l8.618-4.973,1.826,3.156-8.606,4.975Z" transform="translate(1642.836 -32.632)"/><path d="M-1633,63.524V67.04h-9.839V63.524Z" transform="translate(1642.836 -31.545)"/><path d="M-1611.772,114.779v-3.517h9.655v3.517Z" transform="translate(1642.836 -34.779)"/><path d="M-1596.985,70.309l-3.332-1.1c1.511-4.986.485-9.273-3.551-12.771l2.175-2.744A14.2,14.2,0,0,1-1596.985,70.309Z" transform="translate(1642.836 -31.194)"/></svg>