<svg xmlns="http://www.w3.org/2000/svg" width="80" height="80" viewBox="0 0 80 80"><g transform="translate(-376 -888)"><g transform="translate(376 888)" fill="none" stroke="#fabe7d" stroke-width="2"><circle cx="40" cy="40" r="40" stroke="none"/><circle cx="40" cy="40" r="39" fill="none"/></g><path d="M104.707,223.612A14.773,14.773,0,0,0,119.58,208.74c0-.224,0-.448-.016-.679a10.631,10.631,0,0,0,2.605-2.709,10.293,10.293,0,0,1-3,.823,5.238,5.238,0,0,0,2.3-2.893,10.53,10.53,0,0,1-3.316,1.271,5.231,5.231,0,0,0-8.9,4.771,14.84,14.84,0,0,1-10.772-5.458,5.229,5.229,0,0,0,1.614,6.977,5.16,5.16,0,0,1-2.373-.655v.064a5.235,5.235,0,0,0,4.2,5.123,5.221,5.221,0,0,1-2.357.088,5.234,5.234,0,0,0,4.883,3.628,10.517,10.517,0,0,1-6.489,2.246,10.862,10.862,0,0,1-1.247-.072,14.784,14.784,0,0,0,8.007,2.349" transform="translate(306.491 715.271)" fill="#fabe7d"/></g></svg>