<svg xmlns="http://www.w3.org/2000/svg" width="87.937" height="61.977" viewBox="0 0 87.937 61.977"><path d="M-1412.1,65.686c-.1,2.291-1.761,3.293-3.245,2.426a15.017,15.017,0,0,1-2.372-1.96,56.841,56.841,0,0,0-77.323.574c-.29.27-.569.551-.86.82-1.049.967-2.2,1.389-3.355.267-1.22-1.188-.906-2.41.205-3.524a54.659,54.659,0,0,1,19.041-12.709q36.687-14.131,66.2,12.011A14,14,0,0,1-1412.1,65.686Z" transform="translate(1500.041 -46.628)"/><path d="M-1458.766,62.825a42.122,42.122,0,0,1,28.113,10.936c.469.424,1.146.815,1.3,1.346.26.879.579,2.24.139,2.705a3.673,3.673,0,0,1-2.84.7c-.739-.105-1.389-.971-2.037-1.543a36.96,36.96,0,0,0-49.255-.192c-.6.519-1.118,1.341-1.8,1.5-.939.221-2.368.316-2.9-.217s-.282-1.92-.133-2.9c.067-.441.714-.807,1.122-1.181A42.184,42.184,0,0,1-1458.766,62.825Z" transform="translate(1502.628 -43.043)"/><path d="M-1447.7,89.379c-8.934-7.862-18.011-7.809-26.787-.048-3.017-1.026-3.42-2.594-1.441-4.543,7.823-7.7,22.086-7.651,29.776.112C-1444.314,86.759-1444.7,88.2-1447.7,89.379Z" transform="translate(1505.108 -39.452)"/><path d="M-1463.522,98.2c-1.431-.1-2.454-.707-2.521-2.269a2.406,2.406,0,0,1,2.744-2.3c1.425.14,2.459.87,2.378,2.406S-1462.068,98.184-1463.522,98.2Z" transform="translate(1507.566 -36.226)"/></svg>